<svg xmlns="http://www.w3.org/2000/svg" viewBox="0 0 4000 3000" style="enable-background:new 0 0 4000 3000" xml:space="preserve"><radialGradient id="a" cx="1358.841" cy="1778.788" r="592.536" gradientUnits="userSpaceOnUse"><stop offset=".001" style="stop-color:#d9ff00"/><stop offset=".381" style="stop-color:#08eb85"/><stop offset="1" style="stop-color:#00279c"/></radialGradient><path style="fill:url(#a)" d="M1560.2 1337.7v141l22.9-35.4v-140.9z"/><radialGradient id="b" cx="1358.841" cy="1778.788" r="592.536" gradientUnits="userSpaceOnUse"><stop offset=".001" style="stop-color:#d9ff00"/><stop offset=".381" style="stop-color:#08eb85"/><stop offset="1" style="stop-color:#00279c"/></radialGradient><path style="fill:url(#b)" d="m1514.4 1443.4-22.9 35.3v141l22.9-35.3 23.9-36.7v-176.2l-23.9 36.7z"/><radialGradient id="c" cx="1358.841" cy="1778.788" r="592.536" gradientUnits="userSpaceOnUse"><stop offset=".001" style="stop-color:#d9ff00"/><stop offset=".381" style="stop-color:#08eb85"/><stop offset="1" style="stop-color:#00279c"/></radialGradient><path style="fill:url(#c)" d="M1422.8 1267.2V1796l23.8-36.7 22-33.8V1196.8l-22 33.8z"/><radialGradient id="d" cx="1358.841" cy="1778.788" r="592.536" gradientUnits="userSpaceOnUse"><stop offset=".001" style="stop-color:#d9ff00"/><stop offset=".381" style="stop-color:#08eb85"/><stop offset="1" style="stop-color:#00279c"/></radialGradient><path style="fill:url(#d)" d="M1355 1265.9v528.7l22-33.8 22.9-35.3V1196.8l-22.9 35.3z"/><radialGradient id="e" cx="1359.122" cy="1686.106" r="490.495" gradientUnits="userSpaceOnUse"><stop offset=".001" style="stop-color:#d9ff00"/><stop offset=".381" style="stop-color:#08eb85"/><stop offset="1" style="stop-color:#00279c"/></radialGradient><path style="fill:url(#e)" d="M1285.6 1338.3V1585l45.9-70.7v-246.7l-22.9 35.4z"/><radialGradient id="f" cx="1358.841" cy="1778.788" r="592.536" gradientUnits="userSpaceOnUse"><stop offset=".001" style="stop-color:#d9ff00"/><stop offset=".381" style="stop-color:#08eb85"/><stop offset="1" style="stop-color:#00279c"/></radialGradient><path style="fill:url(#f)" d="M1239.6 1408.4v-35.2l-22.9 35.3v281.9l22.9-35.3 23.8-36.7V1407l-23.8 36.7z"/><radialGradient id="g" cx="1358.841" cy="1778.788" r="592.536" gradientUnits="userSpaceOnUse"><stop offset=".001" style="stop-color:#d9ff00"/><stop offset=".381" style="stop-color:#08eb85"/><stop offset="1" style="stop-color:#00279c"/></radialGradient><path style="fill:url(#g)" d="M1148 1267.6v528.6l23.8-36.7 21.9-33.7v-528.7l-21.9 33.8z"/><radialGradient id="h" cx="1358.841" cy="1778.788" r="592.536" gradientUnits="userSpaceOnUse"><stop offset=".001" style="stop-color:#d9ff00"/><stop offset=".381" style="stop-color:#08eb85"/><stop offset="1" style="stop-color:#00279c"/></radialGradient><path style="fill:url(#h)" d="M1080.2 1266.2V1794.9l21.9-33.8 22.9-35.3V1197.1l-22.9 35.3z"/><radialGradient id="i" cx="1358.841" cy="1778.788" r="592.536" gradientUnits="userSpaceOnUse"><stop offset=".001" style="stop-color:#d9ff00"/><stop offset=".381" style="stop-color:#08eb85"/><stop offset="1" style="stop-color:#00279c"/></radialGradient><path style="fill:url(#i)" d="M1010.5 1373.5v282l22.9-35.3v-35.3l22.9-35.3v-246.7l-22.9 35.3z"/><radialGradient id="j" cx="1358.841" cy="1778.788" r="592.536" gradientUnits="userSpaceOnUse"><stop offset=".001" style="stop-color:#d9ff00"/><stop offset=".381" style="stop-color:#08eb85"/><stop offset="1" style="stop-color:#00279c"/></radialGradient><path style="fill:url(#j)" d="M964.7 1408.7V1303l-22.9 35.3v352.4l22.9-35.3 23.8-36.7V1407.3l-23.8 36.6z"/><radialGradient id="k" cx="1358.841" cy="1778.788" r="592.536" gradientUnits="userSpaceOnUse"><stop offset=".001" style="stop-color:#d9ff00"/><stop offset=".381" style="stop-color:#08eb85"/><stop offset="1" style="stop-color:#00279c"/></radialGradient><path style="fill:url(#k)" d="M873.1 1267.8v528.7l23.8-36.7 22-33.8v-528.6l-22 33.7z"/><radialGradient id="l" cx="1358.841" cy="1778.788" r="592.536" gradientUnits="userSpaceOnUse"><stop offset=".001" style="stop-color:#d9ff00"/><stop offset=".381" style="stop-color:#08eb85"/><stop offset="1" style="stop-color:#00279c"/></radialGradient><path style="fill:url(#l)" d="M805.3 1266.5V1795.2l21.9-33.8 23-35.3V1197.4l-23 35.3z"/><radialGradient id="m" cx="1358.841" cy="1778.788" r="592.536" gradientUnits="userSpaceOnUse"><stop offset=".001" style="stop-color:#d9ff00"/><stop offset=".381" style="stop-color:#08eb85"/><stop offset="1" style="stop-color:#00279c"/></radialGradient><path style="fill:url(#m)" d="m758.5 1514.8-22.9 35.3v105.7l22.9-35.3 23.4-36.1v-140.9l-23.4 36z"/><radialGradient id="n" cx="1358.841" cy="1778.788" r="592.536" gradientUnits="userSpaceOnUse"><stop offset=".001" style="stop-color:#d9ff00"/><stop offset=".381" style="stop-color:#08eb85"/><stop offset="1" style="stop-color:#00279c"/></radialGradient><path style="fill:url(#n)" d="M689.9 1479.5v35.3l23.8-36.7v-70.5l-23.8 36.7z"/><g><path d="M1900.5 1274.6h-44l-8.4 20.3h-22.5l42.2-94.7h21.7l42.4 94.7h-23l-8.4-20.3zm-6.9-16.7-15-36.3-15 36.3h30zM2040.8 1200.1v94.7h-21.7V1218h-32.5l-.7 19.8c-.5 13.4-1.5 24.3-3.2 32.7-1.7 8.3-4.6 14.7-8.6 19.2s-9.6 6.7-16.8 6.7c-3 0-6.6-.5-10.8-1.5l1.4-18.5c1.2.4 2.5.5 3.9.5 5.2 0 8.9-3.1 11-9.3 2.1-6.2 3.4-15.9 3.9-29l1.4-38.4h72.7zM2142.4 1239c6.2 5.1 9.3 12.8 9.3 22.9 0 10.7-3.4 18.9-10.2 24.6-6.8 5.6-16.4 8.5-28.8 8.5h-42.8v-94.7h21.8v31.1h24.1c11.5-.1 20.4 2.4 26.6 7.6zm-17.6 35.4c3.2-2.8 4.8-6.9 4.8-12.2 0-9.8-6-14.7-18.1-14.7h-19.8v31.1h19.8c5.6 0 10.1-1.4 13.3-4.2zM2249.6 1200.1v94.7H2228v-25.2h-20l-16.8 25.2h-23.1l19.8-28.6c-6.4-2.6-11.3-6.6-14.8-11.8-3.4-5.3-5.1-11.6-5.1-19 0-7.3 1.7-13.6 5-18.9 3.3-5.3 8.1-9.3 14.2-12.2 6.1-2.8 13.4-4.3 21.7-4.3h40.7zm-54.6 22.2c-3.3 2.9-4.9 7.2-4.9 12.9 0 5.5 1.6 9.7 4.7 12.7 3.2 3 7.8 4.5 13.9 4.5h19.2V1218h-18.7c-6.1 0-10.9 1.4-14.2 4.3zM2365.7 1200.1v94.7h-21.9V1256h-43v38.8h-21.9v-94.7h21.9v37.3h43v-37.3h21.9zM2414 1290.2c-7.8-4.2-13.9-10-18.4-17.5s-6.7-15.9-6.7-25.2c0-9.4 2.2-17.8 6.7-25.2 4.5-7.4 10.6-13.3 18.4-17.5 7.8-4.2 16.6-6.3 26.3-6.3 8.2 0 15.6 1.4 22.3 4.3 6.6 2.9 12.2 7 16.7 12.4l-14.1 13c-6.4-7.4-14.3-11.1-23.8-11.1-5.9 0-11.1 1.3-15.7 3.9-4.6 2.6-8.2 6.2-10.8 10.8-2.6 4.6-3.9 9.8-3.9 15.7 0 5.9 1.3 11.1 3.9 15.7 2.6 4.6 6.2 8.2 10.8 10.8 4.6 2.6 9.8 3.9 15.7 3.9 9.5 0 17.4-3.7 23.8-11.2l14.1 13c-4.5 5.5-10.1 9.7-16.8 12.6-6.7 2.9-14.1 4.3-22.3 4.3-9.6-.1-18.4-2.2-26.2-6.4zM1915.3 1421.6c3.1 3.9 4.6 8.7 4.6 14.3 0 8.4-3.2 14.9-9.5 19.6-6.4 4.7-15.5 7-27.3 7h-46.7v-94.7h44.1c11 0 19.6 2.1 25.7 6.4 6.1 4.2 9.2 10.3 9.2 18.1 0 4.7-1.2 8.8-3.5 12.4-2.3 3.6-5.6 6.4-9.9 8.5 5.8 1.8 10.2 4.6 13.3 8.4zm-57.1-14.4h20.4c4.8 0 8.4-1 10.8-2.9 2.4-1.9 3.7-4.8 3.7-8.6 0-3.7-1.2-6.5-3.7-8.5s-6.1-3-10.8-3h-20.4v23zm39.5 27c0-7.8-5.1-11.8-15.4-11.8h-24.1v23.9h24.1c10.2.1 15.4-4 15.4-12.1zM2010.3 1458c-7.8-4.2-13.9-10-18.4-17.5-4.5-7.4-6.7-15.9-6.7-25.2 0-9.4 2.2-17.8 6.7-25.2 4.5-7.4 10.6-13.3 18.4-17.5 7.8-4.2 16.6-6.3 26.3-6.3 8.2 0 15.6 1.4 22.3 4.3 6.6 2.9 12.2 7 16.7 12.4l-14.1 13c-6.4-7.4-14.3-11.1-23.8-11.1-5.9 0-11.1 1.3-15.7 3.9-4.6 2.6-8.2 6.2-10.8 10.8-2.6 4.6-3.9 9.8-3.9 15.7 0 5.9 1.3 11.1 3.9 15.7 2.6 4.6 6.2 8.2 10.8 10.8 4.6 2.6 9.8 3.9 15.7 3.9 9.5 0 17.4-3.7 23.8-11.2l14.1 13c-4.5 5.5-10.1 9.7-16.8 12.6-6.7 2.9-14.1 4.3-22.3 4.3-9.7-.1-18.4-2.2-26.2-6.4zM2192.7 1444.6c-8.5 7.2-20.8 11.2-36.7 12v10.3h-20.2v-10.4c-16.1-.9-28.3-4.9-36.9-12.1-8.5-7.2-12.8-16.9-12.8-29.3 0-12.4 4.3-22.2 12.8-29.3 8.5-7.1 20.8-11.1 36.9-12.1v-9.7h20.2v9.6c16 .9 28.2 5 36.7 12.2 8.5 7.2 12.8 17 12.8 29.4 0 12.3-4.2 22.2-12.8 29.4zm-56.9-5.2v-48.6c-9.7.9-16.8 3.3-21.4 7.2-4.6 3.9-7 9.6-7 17 0 14.3 9.5 22.4 28.4 24.4zm41.6-7.4c4.7-4 7-9.7 7-17.1 0-14.4-9.5-22.5-28.4-24.1v48.6c9.6-.9 16.7-3.4 21.4-7.4zM2300.8 1445v17.6h-73.3v-94.7h71.6v17.6h-49.8v20.6h44v17h-44v21.9h51.5zM2388.1 1372.1c6.2 2.8 10.9 6.8 14.3 11.9 3.3 5.1 5 11.2 5 18.3 0 6.9-1.7 13-5 18.2-3.3 5.2-8.1 9.2-14.3 11.9-6.2 2.8-13.5 4.1-21.8 4.1h-19.1v26.1h-21.9v-94.7h41c8.4 0 15.7 1.4 21.8 4.2zm-8 42.3c3.4-2.8 5.1-6.9 5.1-12.1 0-5.3-1.7-9.4-5.1-12.2-3.4-2.8-8.4-4.3-15-4.3h-17.9v32.9h17.9c6.6 0 11.6-1.5 15-4.3zM2501.8 1445v17.6h-73.3v-94.7h71.6v17.6h-49.8v20.6h44v17h-44v21.9h51.5zM1836.4 1535.7h21.8v61.7l45.2-61.7h20.6v94.7h-21.6v-61.6l-45.2 61.6h-20.7v-94.7zM1972.1 1625.7c-7.8-4.2-13.9-10-18.4-17.5s-6.7-15.9-6.7-25.2c0-9.4 2.2-17.8 6.7-25.2 4.5-7.4 10.6-13.3 18.4-17.5 7.8-4.2 16.6-6.3 26.3-6.3 8.2 0 15.6 1.4 22.3 4.3 6.6 2.9 12.2 7 16.7 12.4l-14.1 13c-6.4-7.4-14.3-11.1-23.8-11.1-5.9 0-11.1 1.3-15.7 3.9-4.6 2.6-8.2 6.2-10.8 10.8-2.6 4.6-3.9 9.8-3.9 15.7 0 5.9 1.3 11.1 3.9 15.7 2.6 4.6 6.2 8.2 10.8 10.8 4.6 2.6 9.8 3.9 15.7 3.9 9.5 0 17.4-3.7 23.8-11.2l14.1 13c-4.5 5.5-10.1 9.7-16.8 12.6-6.7 2.9-14.1 4.3-22.3 4.3-9.6-.1-18.4-2.2-26.2-6.4zM2094.5 1592.3h-15.2v38.2h-21.8v-94.7h21.8v38.3h15.7l24.9-38.3h23.1l-31 45.7 31.9 49H2119l-24.5-38.2zM2254.1 1535.7l-40.3 75c-3.9 7.2-8.5 12.7-14 16.4s-11.4 5.5-17.8 5.5c-5 0-10.1-1.1-15.4-3.2l5.3-16.6c3.8 1.2 6.9 1.8 9.5 1.8 2.7 0 5.1-.7 7.3-2s4.2-3.4 6-6.2l.8-1.1-37.3-69.5h23.4l25.2 50.9 26-50.9h21.3zM2286.8 1625.7c-7.8-4.2-13.9-10-18.4-17.5-4.5-7.4-6.7-15.9-6.7-25.2 0-9.4 2.2-17.8 6.7-25.2 4.5-7.4 10.6-13.3 18.4-17.5 7.8-4.2 16.6-6.3 26.3-6.3 8.2 0 15.6 1.4 22.3 4.3 6.6 2.9 12.2 7 16.7 12.4l-14.1 13c-6.4-7.4-14.3-11.1-23.8-11.1-5.9 0-11.1 1.3-15.7 3.9-4.6 2.6-8.2 6.2-10.8 10.8-2.6 4.6-3.9 9.8-3.9 15.7 0 5.9 1.3 11.1 3.9 15.7 2.6 4.6 6.2 8.2 10.8 10.8 4.6 2.6 9.8 3.9 15.7 3.9 9.5 0 17.4-3.7 23.8-11.2l14.1 13c-4.5 5.5-10.1 9.7-16.8 12.6-6.7 2.9-14.1 4.3-22.3 4.3-9.7-.1-18.4-2.2-26.2-6.4zM2389.4 1625.7c-7.8-4.2-13.9-10-18.4-17.5-4.5-7.4-6.7-15.9-6.7-25.2 0-9.4 2.2-17.8 6.7-25.2 4.5-7.4 10.6-13.3 18.4-17.5 7.8-4.2 16.6-6.3 26.3-6.3 8.2 0 15.6 1.4 22.3 4.3 6.6 2.9 12.2 7 16.7 12.4l-14.1 13c-6.4-7.4-14.3-11.1-23.8-11.1-5.9 0-11.1 1.3-15.7 3.9-4.6 2.6-8.2 6.2-10.8 10.8-2.6 4.6-3.9 9.8-3.9 15.7 0 5.9 1.3 11.1 3.9 15.7 2.6 4.6 6.2 8.2 10.8 10.8 4.6 2.6 9.8 3.9 15.7 3.9 9.5 0 17.4-3.7 23.8-11.2l14.1 13c-4.5 5.5-10.1 9.7-16.8 12.6-6.7 2.9-14.1 4.3-22.3 4.3-9.7-.1-18.4-2.2-26.2-6.4zM2552.2 1553.6h-30.3v76.9h-21.7v-76.9H2470v-17.9h82.1v17.9zM2651.2 1589.4c3.1 3.9 4.6 8.7 4.6 14.3 0 8.4-3.2 14.9-9.5 19.6-6.4 4.7-15.5 7-27.3 7h-46.7v-94.7h44.1c11 0 19.6 2.1 25.7 6.4 6.1 4.2 9.2 10.3 9.2 18.1 0 4.7-1.2 8.8-3.5 12.4-2.3 3.6-5.6 6.4-9.9 8.5 5.8 1.7 10.2 4.5 13.3 8.4zm-57.1-14.5h20.4c4.8 0 8.4-1 10.8-2.9 2.4-1.9 3.7-4.8 3.7-8.6 0-3.7-1.2-6.5-3.7-8.5s-6.1-3-10.8-3h-20.4v23zm39.5 27.1c0-7.8-5.1-11.8-15.4-11.8h-24.1v23.9h24.1c10.2.1 15.4-4 15.4-12.1zM2752.7 1612.8v17.6h-73.3v-94.7h71.6v17.6h-49.8v20.6h44v17h-44v21.9h51.5zM2864 1535.7v94.7h-21.9v-38.8h-43v38.8h-21.9v-94.7h21.9v37.3h43v-37.3h21.9zM2980.1 1535.7v94.7h-21.9v-38.8h-43v38.8h-21.9v-94.7h21.9v37.3h43v-37.3h21.9zM3028.5 1625.7c-7.9-4.2-14.1-10.1-18.5-17.5-4.5-7.4-6.7-15.8-6.7-25.1s2.2-17.7 6.7-25.1c4.5-7.4 10.6-13.3 18.5-17.5 7.9-4.2 16.8-6.4 26.6-6.4s18.7 2.1 26.5 6.4c7.8 4.2 14 10.1 18.5 17.5s6.8 15.8 6.8 25.1-2.3 17.7-6.8 25.1c-4.5 7.4-10.7 13.3-18.5 17.5-7.8 4.2-16.7 6.4-26.5 6.4-9.9-.1-18.7-2.2-26.6-6.4zm41.7-16.2c4.5-2.6 8.1-6.2 10.6-10.8 2.6-4.6 3.9-9.8 3.9-15.7 0-5.9-1.3-11.1-3.9-15.7-2.6-4.6-6.1-8.2-10.6-10.8-4.5-2.6-9.6-3.9-15.2-3.9s-10.6 1.3-15.2 3.9c-4.5 2.6-8.1 6.2-10.6 10.8-2.6 4.6-3.9 9.8-3.9 15.7 0 5.9 1.3 11.1 3.9 15.7 2.6 4.6 6.1 8.2 10.6 10.8s9.6 3.9 15.2 3.9c5.7 0 10.7-1.3 15.2-3.9zM3196.7 1553.6h-45.1l.1 76.9H3130v-94.7h66.8l-.1 17.8zM3234.6 1625.7c-7.9-4.2-14.1-10.1-18.5-17.5-4.5-7.4-6.7-15.8-6.7-25.1s2.2-17.7 6.7-25.1c4.5-7.4 10.6-13.3 18.5-17.5 7.9-4.2 16.8-6.4 26.6-6.4s18.7 2.1 26.5 6.4c7.8 4.2 14 10.1 18.5 17.5s6.8 15.8 6.8 25.1-2.3 17.7-6.8 25.1c-4.5 7.4-10.7 13.3-18.5 17.5-7.8 4.2-16.7 6.4-26.5 6.4-9.9-.1-18.7-2.2-26.6-6.4zm41.7-16.2c4.5-2.6 8.1-6.2 10.6-10.8 2.6-4.6 3.9-9.8 3.9-15.7 0-5.9-1.3-11.1-3.9-15.7-2.6-4.6-6.1-8.2-10.6-10.8-4.5-2.6-9.6-3.9-15.2-3.9s-10.6 1.3-15.2 3.9c-4.5 2.6-8.1 6.2-10.6 10.8-2.6 4.6-3.9 9.8-3.9 15.7 0 5.9 1.3 11.1 3.9 15.7 2.6 4.6 6.1 8.2 10.6 10.8s9.6 3.9 15.2 3.9c5.7 0 10.7-1.3 15.2-3.9zM1836.4 1703.5h21.8v61.7l45.2-61.7h20.6v94.7h-21.6v-61.6l-45.2 61.6h-20.7v-94.7zM2039.9 1703.5v94.7H2018v-38.8h-43v38.8h-22v-94.7h21.9v37.3h43v-37.3h22zM2142.1 1721.3h-30.3v76.9h-21.7v-76.9H2060v-17.9h82.1v17.9zM2235.5 1780.6v17.6h-73.3v-94.7h71.6v17.6H2184v20.6h44v17h-44v21.9h51.5zM2346.9 1703.5v94.7h-21.7v-76.9h-32.5l-.7 19.8c-.5 13.4-1.5 24.3-3.2 32.7-1.7 8.3-4.6 14.7-8.6 19.2s-9.6 6.7-16.8 6.7c-3 0-6.6-.5-10.8-1.5l1.4-18.5c1.2.4 2.5.5 3.9.5 5.2 0 8.9-3.1 11-9.3s3.4-15.9 3.9-29l1.4-38.4h72.7zM2461.1 1703.5v94.7h-21.7v-76.9H2407l-.7 19.8c-.5 13.4-1.5 24.3-3.2 32.7-1.7 8.3-4.6 14.7-8.6 19.2s-9.6 6.7-16.8 6.7c-3 0-6.6-.5-10.8-1.5l1.4-18.5c1.2.4 2.5.5 3.9.5 5.2 0 8.9-3.1 11-9.3s3.4-15.9 3.9-29l1.4-38.4h72.6zM2563.6 1780.6v17.6h-73.3v-94.7h71.6v17.6h-49.8v20.6h44v17h-44v21.9h51.5zM2624.9 1760h-15.2v38.2h-21.8v-94.7h21.8v38.3h15.7l24.9-38.3h23.1l-31 45.7 31.9 49h-24.9l-24.5-38.2zM2771 1721.3h-30.3v76.9H2719v-76.9h-30.2v-17.9h82.1v17.9zM2845.3 1777.9h-44l-8.4 20.3h-22.5l42.2-94.7h21.7l42.4 94.7h-23l-8.4-20.3zm-6.9-16.6-15-36.3-15 36.3h30z"/></g></svg>