<svg width="387" height="365" viewBox="0 0 387 365" fill="none" xmlns="http://www.w3.org/2000/svg">
<g opacity="0.5" filter="url(#filter0_f_420_225)">
<path d="M193.5 336C272.753 336 337 271.977 337 193C337 114.023 272.753 50 193.5 50C114.247 50 50 114.023 50 193C50 271.977 114.247 336 193.5 336Z" fill="url(#paint0_radial_420_225)"/>
</g>
<path d="M122.323 132.277C122.213 131.531 121.818 130.857 121.223 130.395C120.627 129.933 119.876 129.719 119.126 129.797C118.377 129.875 117.686 130.24 117.199 130.815C116.712 131.39 116.465 132.132 116.511 132.884L117.407 141.524C116.56 141.413 115.703 141.398 114.853 141.479C111.998 141.789 109.382 143.217 107.579 145.451C105.775 147.685 104.93 150.543 105.228 153.399L105.524 156.235C105.672 157.652 106.098 159.026 106.777 160.279C107.456 161.531 108.375 162.638 109.482 163.535C110.589 164.432 111.862 165.103 113.228 165.508C114.594 165.913 116.027 166.045 117.444 165.896C120.299 165.587 122.915 164.158 124.718 161.924C126.522 159.69 127.367 156.832 127.069 153.977L126.773 151.141C126.506 148.542 122.323 132.277 122.323 132.277Z" fill="#1F3345" stroke="#00F7EA" stroke-width="1.58803" stroke-miterlimit="10"/>
<path d="M184.312 173.655L177.708 169.413C177.017 168.97 176.245 168.668 175.437 168.524C174.63 168.38 173.801 168.396 172.999 168.572C172.198 168.748 171.439 169.08 170.765 169.55C170.092 170.019 169.518 170.617 169.076 171.308L147.717 204.624C147.598 204.802 147.48 204.979 147.346 205.142L147.228 205.29C146.498 206.206 145.525 206.898 144.421 207.287C143.317 207.677 142.125 207.75 140.982 207.496C139.839 207.242 138.79 206.672 137.954 205.852C137.119 205.031 136.53 203.993 136.256 202.854C136.138 202.358 136.019 201.848 135.901 201.307L127.616 162.735H106.798L116.008 205.638C119.295 220.912 125.847 229.759 135.494 231.935C136.859 232.241 138.255 232.395 139.654 232.394C146.058 232.394 154.58 229.174 163.93 217.017L164.197 216.669L186.208 182.325C186.656 181.632 186.962 180.857 187.11 180.046C187.257 179.234 187.242 178.401 187.066 177.595C186.89 176.789 186.556 176.026 186.083 175.35C185.61 174.673 185.009 174.097 184.312 173.655Z" fill="#1F3345" stroke="#00F7EA" stroke-width="1.58803" stroke-miterlimit="10"/>
<path d="M230.244 239.324H161.317V320.37H230.244V239.324Z" fill="#1F3345" stroke="#00F7EA" stroke-width="1.58803" stroke-miterlimit="10"/>
<path d="M214.659 167.629H175.865V248.675H214.659V167.629Z" fill="#1F3345" stroke="#00F7EA" stroke-width="1.58803" stroke-miterlimit="10"/>
<path d="M213.149 172.115L210.521 179.519C209.97 181.081 210.062 182.797 210.775 184.292C211.489 185.787 212.766 186.938 214.326 187.492L251.64 200.715C251.84 200.789 252.032 200.87 252.225 200.959L252.395 201.041C253.454 201.542 254.352 202.331 254.984 203.318C255.616 204.306 255.958 205.451 255.97 206.623C255.983 207.795 255.665 208.947 255.054 209.947C254.443 210.947 253.562 211.755 252.513 212.279C252.069 212.509 251.595 212.738 251.092 212.975L215.414 229.811L220.145 250.081L259.776 231.373C273.91 224.71 281.032 216.314 280.965 206.43C280.951 205.03 280.784 203.634 280.469 202.27C278.988 196.028 273.932 188.462 259.969 182.125L259.554 181.947L221.1 168.317C219.542 167.771 217.831 167.864 216.341 168.576C214.851 169.288 213.704 170.56 213.149 172.115Z" fill="#1F3345" stroke="#00F7EA" stroke-width="1.58803" stroke-miterlimit="10"/>
<path d="M190.324 205.89L183.165 166.518L164.93 255.76L224.713 256.345L204.006 164.771L190.324 205.89Z" fill="#1F3345" stroke="#00F7EA" stroke-width="1.58803" stroke-miterlimit="10"/>
<path d="M199.438 174.543L199.549 175.987C201.718 203.38 202.903 232.306 203.043 261.542L203.376 330.394L245.71 329.306L244.007 256.767C243.378 229.651 238.21 202.832 228.719 177.423L228.215 176.083C226.746 172.166 224.115 168.79 220.675 166.409C217.235 164.027 213.15 162.753 208.966 162.757H197.224C198.238 165.215 199.031 169.361 199.438 174.543Z" fill="#1F3345" stroke="#00F7EA" stroke-width="1.58803" stroke-miterlimit="10"/>
<path d="M181.706 252.769C182.113 225.746 183.402 199.182 185.534 174.033C185.948 169.08 186.718 165.148 187.673 162.727H186.422C182.315 162.728 178.303 163.959 174.902 166.262C171.502 168.565 168.869 171.833 167.343 175.647C158.013 198.973 152.361 223.607 150.589 248.667L144.8 330.417H180.536L181.706 252.769Z" fill="#1F3345" stroke="#00F7EA" stroke-width="1.58803" stroke-miterlimit="10"/>
<path d="M173.518 74.8258L155.091 83.3102C155.091 83.3102 226.853 35.3948 233.798 62.2621C234.456 64.8163 235.834 92.3054 236.692 94.8004L246.976 103.833C250.204 107.831 246.139 114.938 247.442 119.869C247.916 121.668 255.379 125.214 257 126.532C262.049 130.656 262.464 137.852 257.326 141.953L246.732 152.807C242.593 156.109 238.321 154.413 233.057 155.132L214.149 153.451L173.518 74.8258Z" fill="#1F3345" stroke="#00F7EA" stroke-width="1.58803" stroke-miterlimit="10"/>
<path d="M213.23 65.0976L220.338 54.444C220.338 54.444 162.22 30.6713 157.038 58.5603C156.571 61.0479 154.284 85.6497 153.403 91.1357C153.311 91.6928 153.053 92.209 152.662 92.6164C146.688 98.7613 142.335 99.4054 142.335 107.986C142.335 108.726 143.564 117.085 143.445 117.773C143.023 120.32 139.181 124.192 137.885 125.421C133.095 129.967 132.436 136.852 137.826 140.665L149.057 149.372C150.626 150.482 165.345 152.133 167.262 152.266L173.392 148.165L213.23 65.0976Z" fill="#1F3345" stroke="#00F7EA" stroke-width="1.58803" stroke-miterlimit="10"/>
<path d="M215.459 62.0103C205.62 62.0103 195.832 59.2118 186.911 54.8289C170.527 56.4651 163.131 65.5936 163.131 86.0865L155.654 115.042C155.654 137.844 172.274 156.331 192.782 156.331C213.29 156.331 229.911 137.822 229.911 115.042L223.721 87.5154C223.721 75.7586 220.945 67.3779 215.459 62.0103Z" fill="#1F3345" stroke="#00F7EA" stroke-width="1.58803" stroke-miterlimit="10"/>
<path d="M228.215 112.273L200.533 131.707C200.133 131.834 199.717 131.899 199.297 131.899L192.086 131.996L184.875 131.899C184.455 131.899 184.038 131.834 183.639 131.707L157.053 113.154C154.387 112.31 153.306 124.903 153.351 127.561L153.521 141.768C153.562 142.769 153.978 143.718 154.688 144.425C155.397 145.132 156.348 145.545 157.349 145.581L159.029 145.685C159.918 145.72 160.769 146.05 161.45 146.622C162.131 147.195 162.602 147.977 162.79 148.846L164.397 157.108C164.53 157.682 164.785 158.221 165.144 158.688C165.504 159.155 165.959 159.54 166.48 159.816C167.001 160.092 167.575 160.252 168.163 160.287C168.752 160.322 169.341 160.23 169.89 160.018C170.402 159.823 170.946 159.731 171.493 159.747C172.04 159.764 172.578 159.888 173.077 160.113C173.576 160.338 174.025 160.659 174.4 161.058C174.774 161.457 175.065 161.927 175.258 162.439L178.471 171.878C178.794 172.814 179.461 173.592 180.337 174.055L189.702 179.119C190.461 179.441 191.276 179.608 192.101 179.608C192.925 179.608 193.741 179.441 194.5 179.119L203.865 174.055C204.741 173.592 205.407 172.814 205.731 171.878L208.944 162.439C209.135 161.926 209.426 161.456 209.8 161.056C210.175 160.657 210.624 160.335 211.123 160.11C211.622 159.885 212.161 159.761 212.708 159.745C213.255 159.729 213.8 159.822 214.311 160.018C214.861 160.23 215.45 160.322 216.038 160.287C216.627 160.252 217.201 160.092 217.721 159.816C218.242 159.54 218.698 159.155 219.057 158.688C219.417 158.221 219.672 157.682 219.805 157.108L221.411 148.846C221.598 147.977 222.068 147.195 222.747 146.623C223.427 146.051 224.277 145.721 225.165 145.685L226.853 145.581C227.854 145.546 228.804 145.133 229.513 144.426C230.222 143.719 230.636 142.769 230.673 141.768L230.851 127.561C230.865 124.94 230.88 111.436 228.215 112.273Z" fill="#1F3345" stroke="#00F7EA" stroke-width="1.58803" stroke-miterlimit="10"/>
<path d="M209.884 126.835C209.922 126.536 209.89 126.232 209.791 125.947C209.692 125.662 209.529 125.403 209.314 125.192L203.088 118.914C202.8 118.63 202.447 118.421 202.06 118.305C201.673 118.189 201.263 118.169 200.867 118.247L193.967 119.447C193.621 119.506 193.293 119.64 193.004 119.839C192.712 119.641 192.382 119.508 192.034 119.447L185.134 118.247C184.738 118.169 184.328 118.189 183.941 118.305C183.554 118.421 183.201 118.63 182.913 118.914L176.687 125.192C176.472 125.403 176.309 125.662 176.21 125.947C176.111 126.232 176.079 126.536 176.117 126.835L177.198 134.579C177.256 135.006 177.167 135.439 176.946 135.808C175.946 137.519 177.849 139.429 179.855 138.718L182.21 137.896C182.496 137.801 182.76 137.647 182.986 137.446C183.211 137.245 183.393 137 183.52 136.726L186.837 129.323C186.984 129.006 187.205 128.729 187.481 128.516L192.967 124.311L198.446 128.516C198.722 128.729 198.943 129.006 199.09 129.323L202.407 136.726C202.534 137 202.716 137.245 202.941 137.446C203.167 137.647 203.43 137.801 203.717 137.896L206.071 138.718C208.078 139.458 209.98 137.519 208.981 135.808C208.76 135.439 208.671 135.006 208.729 134.579L209.884 126.835Z" fill="#00F7EA"/>
<path d="M191.013 84.2948L187.511 102.137C187.511 102.137 179.219 116.892 197.876 114.346" fill="#1F3345"/>
<path d="M191.013 84.2948L187.511 102.137C187.511 102.137 179.219 116.892 197.876 114.346" stroke="#00F7EA" stroke-width="1.52729" stroke-linecap="round" stroke-linejoin="round"/>
<path d="M176.79 97.9839H176.783C175.552 97.9839 174.554 98.9816 174.554 100.212V105.091C174.554 106.322 175.552 107.32 176.783 107.32H176.79C178.021 107.32 179.019 106.322 179.019 105.091V100.212C179.019 98.9816 178.021 97.9839 176.79 97.9839Z" fill="#00F7EA"/>
<path d="M184.668 93.7417C184.49 89.1885 182.95 85.5979 181.055 85.5979H173.103C171.201 85.5979 169.661 89.1811 169.49 93.7417H184.668Z" fill="#00F7EA"/>
<path d="M212.372 92.0093C212.194 88.6555 210.654 86.0124 208.759 86.0124H200.807C198.912 86.0124 197.365 88.6555 197.194 92.0093H212.372Z" fill="#00F7EA"/>
<path d="M213.652 96.8068C214.859 94.3414 214.585 91.7132 212.912 90.7655L206.005 86.8269C204.361 85.8866 201.955 86.9897 200.445 89.2774L213.652 96.8068Z" fill="#00F7EA"/>
<path d="M167.595 96.8068C166.389 94.3414 166.655 91.7132 168.336 90.7655L175.236 86.8269C176.887 85.8866 179.293 86.9897 180.803 89.2774L167.595 96.8068Z" fill="#00F7EA"/>
<path d="M203.443 97.9839H203.435C202.205 97.9839 201.207 98.9816 201.207 100.212V105.091C201.207 106.322 202.205 107.32 203.435 107.32H203.443C204.674 107.32 205.671 106.322 205.671 105.091V100.212C205.671 98.9816 204.674 97.9839 203.443 97.9839Z" fill="#00F7EA"/>
<path d="M223.936 199.375H216.162C213.369 199.375 211.105 201.639 211.105 204.431C211.105 207.224 213.369 209.488 216.162 209.488H223.936C226.728 209.488 228.992 207.224 228.992 204.431C228.992 201.639 226.728 199.375 223.936 199.375Z" stroke="#00F7EA" stroke-width="1.58803" stroke-miterlimit="10"/>
<defs>
<filter id="filter0_f_420_225" x="0" y="0" width="387" height="386" filterUnits="userSpaceOnUse" color-interpolation-filters="sRGB">
<feFlood flood-opacity="0" result="BackgroundImageFix"/>
<feBlend mode="normal" in="SourceGraphic" in2="BackgroundImageFix" result="shape"/>
<feGaussianBlur stdDeviation="25" result="effect1_foregroundBlur_420_225"/>
</filter>
<radialGradient id="paint0_radial_420_225" cx="0" cy="0" r="1" gradientUnits="userSpaceOnUse" gradientTransform="translate(193.5 186.863) scale(143.5 142.378)">
<stop offset="0.01" stop-color="#00F7EA"/>
<stop offset="0.99" stop-color="#00FFFF" stop-opacity="0"/>
</radialGradient>
</defs>
</svg>
