<svg width="533" height="779" viewBox="0 0 533 779" fill="none" xmlns="http://www.w3.org/2000/svg">
<path d="M532.348 725.398V46.7237C532.348 20.9648 511.535 0 486 0H46.3471C20.7838 0 0 21.001 0 46.7237V725.398C0 726.846 0.0868478 728.295 0.217199 729.671C0.217199 729.967 0.267881 730.264 0.296848 730.561C0.448924 731.923 0.651764 733.277 0.912466 734.602C0.955917 734.819 1.01382 735.037 1.05727 735.254C1.31797 736.471 1.62214 737.658 1.97698 738.831C2.03492 739.049 2.09285 739.266 2.15802 739.476C2.56356 740.75 3.01738 741.998 3.51948 743.22L3.86706 744.009C4.39571 745.24 4.96058 746.457 5.59785 747.63C6.23512 748.81 6.93756 749.947 7.66898 751.07L8.14696 751.794C8.87113 752.873 9.65321 753.923 10.4715 754.93L10.8843 755.415C11.6519 756.335 12.4485 757.218 13.2886 758.073L13.7376 758.551C14.6573 759.463 15.6204 760.339 16.6343 761.179L17.286 761.715C18.3071 762.548 19.3499 763.352 20.4434 764.091H20.4796C20.5448 764.141 20.6172 764.17 20.6824 764.221C21.9376 765.061 23.2339 765.841 24.5712 766.56C25.0419 766.821 25.5343 767.023 26.0195 767.284C26.9754 767.755 27.9313 768.226 28.9162 768.631C29.6404 768.921 30.3646 769.167 31.0887 769.42C31.8129 769.674 32.4574 769.92 33.1526 770.145C33.8478 770.369 34.6662 770.55 35.4265 770.739C36.1869 770.927 36.8749 771.101 37.5991 771.238C38.5477 771.426 39.5181 771.564 40.4958 771.687C40.9737 771.752 41.4517 771.839 41.9441 771.89C43.3925 772.035 44.9205 772.122 46.434 772.122H486.058C511.535 772.129 532.348 751.164 532.348 725.398ZM27.9241 725.398V46.7237C27.9087 41.8209 29.8406 37.1126 33.2952 33.6336C36.7498 30.1546 41.4444 28.1895 46.3471 28.1704H485.971C486.6 28.1687 487.229 28.2001 487.854 28.2645C488.021 28.2645 488.18 28.3152 488.34 28.3369C488.723 28.3876 489.107 28.4456 489.484 28.518C489.86 28.5904 490.063 28.6483 490.353 28.7135C490.642 28.7787 490.954 28.8583 491.243 28.9525C491.533 29.0466 491.801 29.1335 492.076 29.2349C492.351 29.3363 492.641 29.4304 492.916 29.5463L493.141 29.626C494.781 30.3325 496.312 31.2689 497.689 32.4068C497.754 32.4575 497.805 32.5227 497.87 32.5806C497.935 32.6385 498.181 32.863 498.333 33.0006C498.688 33.3192 499.057 33.6524 499.347 34C499.513 34.1738 499.666 34.3476 499.825 34.5286C500.136 34.8835 500.426 35.2528 500.708 35.6366C500.839 35.8032 500.969 35.9697 501.092 36.1435C501.478 36.698 501.834 37.2734 502.157 37.8671V37.8671C502.481 38.473 502.771 39.0968 503.026 39.7354C503.105 39.931 503.171 40.1337 503.243 40.3365C503.41 40.7927 503.562 41.249 503.692 41.7269C503.757 41.9586 503.815 42.1976 503.873 42.4511C503.982 42.929 504.076 43.4142 504.148 43.8994C504.184 44.1167 504.228 44.3339 504.25 44.5512C504.336 45.2722 504.382 45.9975 504.387 46.7237V725.398C504.403 730.301 502.471 735.01 499.017 738.491C495.562 741.971 490.868 743.937 485.964 743.959H46.3471C41.4437 743.937 36.7491 741.971 33.2948 738.491C29.8404 735.01 27.9087 730.301 27.9241 725.398V725.398Z" fill="#D4FFFF"/>
<path d="M503.909 49.3222C504.018 49.8002 504.112 50.2854 504.184 50.7706C504.083 50.2854 503.989 49.8002 503.909 49.3222Z" fill="#E9E6EC"/>
<path d="M501.092 43.0074C501.48 43.5609 501.836 44.1364 502.157 44.731C501.836 44.1364 501.48 43.5609 501.092 43.0074Z" fill="#E9E6EC"/>
<path d="M499.825 41.3997C500.137 41.7618 500.426 42.1239 500.709 42.5077C500.426 42.1312 500.137 41.7618 499.825 41.3997Z" fill="#E9E6EC"/>
<path d="M491.244 35.8236C491.526 35.9105 491.801 36.0119 492.076 36.1133C491.801 36.0119 491.526 35.9105 491.244 35.8236Z" fill="#E9E6EC"/>
<path d="M503.25 47.2221C503.417 47.6783 503.569 48.1418 503.699 48.6125C503.569 48.1418 503.417 47.6783 503.25 47.2221Z" fill="#E9E6EC"/>
<path d="M498.333 39.879C498.688 40.1976 499.057 40.5235 499.347 40.8783C499.021 40.5235 498.688 40.1976 498.333 39.879Z" fill="#E9E6EC"/>
<path d="M494.64 37.214C495.179 37.4983 495.701 37.8126 496.204 38.1555H496.262C496.823 38.5352 497.36 38.9487 497.87 39.3938C497.805 39.3431 497.754 39.2779 497.689 39.2272C496.316 38.0842 494.784 37.1474 493.141 36.4464L492.917 36.3668C493.308 36.5261 493.691 36.7144 494.075 36.9027C494.264 37.0475 494.495 37.1344 494.64 37.214Z" fill="#E9E6EC"/>
<path d="M483.69 750.837C488.592 750.814 493.285 748.846 496.738 745.366C500.191 741.887 502.121 737.179 502.106 732.276V53.6021C502.101 52.8759 502.055 52.1506 501.968 51.4296C501.968 51.2123 501.903 50.9878 501.867 50.7706C501.794 50.2781 501.708 49.7929 501.592 49.3222C501.534 49.0832 501.476 48.8443 501.411 48.5981C501.28 48.1273 501.128 47.6639 500.962 47.2076C500.889 47.0121 500.824 46.8021 500.744 46.6066C500.489 45.9709 500.199 45.3496 499.875 44.7454C499.564 44.1466 499.218 43.5663 498.84 43.0074L498.463 42.4933C498.174 42.1167 497.884 41.7691 497.573 41.3853C497.413 41.2115 497.261 41.0304 497.095 40.8639C496.769 40.509 496.436 40.1832 496.081 39.8645C495.929 39.7197 495.777 39.5748 495.617 39.4373C495.108 38.9939 494.574 38.5804 494.017 38.1989H493.973C493.467 37.8552 492.942 37.5386 492.402 37.2502C492.214 37.1489 492.018 37.062 491.83 36.9751C491.453 36.7868 491.106 36.5985 490.671 36.4392C490.61 36.4059 490.548 36.3768 490.483 36.3523C490.273 36.2654 490.048 36.2002 489.831 36.1278C489.614 36.0554 489.281 35.925 488.998 35.8381C488.716 35.7512 488.405 35.6788 488.108 35.6064C487.811 35.534 487.535 35.4615 487.239 35.4036L487.043 35.3602C486.732 35.3022 486.413 35.266 486.094 35.2298C485.899 35.2298 485.711 35.1646 485.515 35.1501C484.928 35.0922 484.335 35.056 483.734 35.056H46.347C41.4435 35.0771 36.7489 37.0437 33.2946 40.5239C29.8402 44.0041 27.9085 48.7131 27.9239 53.6166V732.276C27.9085 737.18 29.8402 741.889 33.2946 745.369C36.7489 748.849 41.4435 750.816 46.347 750.837H483.69Z" fill="#1F3345"/>
<path opacity="0.2" d="M502.106 218.258V53.6021C502.101 52.8759 502.055 52.1506 501.969 51.4296C501.969 51.2123 501.903 50.9878 501.867 50.7706C501.795 50.2781 501.708 49.7929 501.592 49.3222C501.534 49.0832 501.476 48.8443 501.411 48.5981C501.281 48.1273 501.129 47.6639 500.962 47.2076C500.89 47.0121 500.824 46.8021 500.745 46.6066C500.489 45.9709 500.199 45.3496 499.876 44.7454C499.564 44.1466 499.219 43.5663 498.84 43.0074L498.464 42.4933C498.174 42.1167 497.884 41.7691 497.573 41.3853C497.414 41.2115 497.261 41.0304 497.095 40.8639C496.769 40.509 496.436 40.1832 496.081 39.8645C495.929 39.7197 495.777 39.5748 495.618 39.4373C495.108 38.9939 494.574 38.5804 494.017 38.1989H493.974C493.467 37.8552 492.942 37.5386 492.402 37.2502C492.214 37.1489 492.018 37.062 491.83 36.9751C491.454 36.7868 491.106 36.5985 490.671 36.4392C490.611 36.4059 490.548 36.3768 490.483 36.3523C490.273 36.2654 490.049 36.2002 489.831 36.1278C489.614 36.0554 489.281 35.925 488.999 35.8381C488.716 35.7512 488.405 35.6788 488.108 35.6064C487.811 35.534 487.536 35.4615 487.239 35.4036L487.043 35.3602C486.732 35.3022 486.413 35.266 486.095 35.2298C485.899 35.2298 485.711 35.1646 485.515 35.1501C484.929 35.0922 484.335 35.056 483.734 35.056H318.89C366.367 82.5425 413.849 130.024 461.335 177.501L502.106 218.258Z" fill="#2A545E"/>
<path opacity="0.2" d="M27.9239 53.6021V246.334L31.5955 250.005L223.074 441.484L415.241 633.651L502.142 720.516V358.747L178.436 35.0415H46.347C41.4435 35.0626 36.7489 37.0292 33.2946 40.5094C29.8402 43.9896 27.9085 48.6986 27.9239 53.6021V53.6021Z" fill="#2A545E"/>
<path d="M504.257 51.4368C504.343 52.1579 504.389 52.8832 504.394 53.6094C504.389 52.8832 504.343 52.1579 504.257 51.4368V51.4368Z" fill="#E9E6EC"/>
<path d="M488.339 35.2153L487.854 35.1357C487.238 35.0777 486.608 35.0415 485.971 35.0415C486.572 35.0415 487.173 35.0777 487.76 35.1357C487.977 35.1501 488.144 35.1863 488.339 35.2153Z" fill="#E9E6EC"/>
<path d="M489.484 35.3891C489.781 35.447 490.063 35.5267 490.353 35.5919C490.063 35.5267 489.781 35.447 489.484 35.3891Z" fill="#E9E6EC"/>
<path d="M502.164 44.7599C502.487 45.3641 502.777 45.9854 503.033 46.6211C502.777 45.9854 502.487 45.3641 502.164 44.7599V44.7599Z" fill="#E9E6EC"/>
<path d="M486.051 35.2153C486.37 35.2153 486.688 35.2877 487 35.3457L487.195 35.3891C487.492 35.4471 487.775 35.5267 488.064 35.5919C488.354 35.6571 488.665 35.7367 488.955 35.8236C489.245 35.9105 489.513 36.0119 489.788 36.1133C490.063 36.2147 490.23 36.2509 490.44 36.3378C490.504 36.3623 490.567 36.3914 490.628 36.4247C491.026 36.584 491.41 36.7723 491.786 36.9606C491.975 37.0475 492.17 37.1344 492.359 37.2358C492.899 37.5241 493.423 37.8407 493.93 38.1844H493.974C494.53 38.566 495.065 38.9794 495.574 39.4228C495.733 39.5604 495.885 39.7052 496.037 39.85C496.392 40.1687 496.725 40.4946 497.051 40.8494C497.218 41.016 497.37 41.197 497.529 41.3708C497.841 41.7329 498.13 42.095 498.42 42.4788L498.796 42.9929C499.184 43.5464 499.54 44.1219 499.861 44.7165V44.7165C500.184 45.3207 500.474 45.942 500.73 46.5776C500.81 46.7731 500.875 46.9831 500.947 47.1787C501.114 47.6349 501.266 48.0984 501.396 48.5691C501.461 48.8008 501.519 49.0398 501.577 49.2933C501.693 49.7712 501.78 50.2564 501.853 50.7416C501.853 50.9589 501.932 51.1834 501.954 51.4006C502.04 52.1216 502.086 52.847 502.091 53.5731V732.276C502.107 737.179 500.176 741.887 496.723 745.366C493.271 748.846 488.578 750.814 483.676 750.837H485.957C490.86 750.816 495.555 748.849 499.009 745.369C502.464 741.889 504.395 737.18 504.38 732.276V53.6021C504.375 52.8759 504.329 52.1506 504.242 51.4296C504.242 51.2123 504.177 50.9878 504.141 50.7706C504.068 50.2781 503.974 49.7929 503.866 49.3222C503.808 49.0833 503.75 48.8443 503.685 48.5981C503.554 48.1273 503.402 47.6639 503.236 47.2076C503.163 47.0121 503.098 46.8021 503.018 46.6066C502.763 45.9709 502.473 45.3496 502.149 44.7454V44.7454C501.828 44.1508 501.473 43.5754 501.085 43.0219C500.962 42.8481 500.831 42.6816 500.701 42.5078C500.419 42.1312 500.129 41.7836 499.818 41.3998C499.658 41.226 499.506 41.0449 499.34 40.8784C499.014 40.5235 498.681 40.1976 498.326 39.879C498.174 39.7342 498.022 39.5893 497.862 39.4517C497.352 39.0067 496.815 38.5931 496.255 38.2134H496.197C495.693 37.8706 495.171 37.5563 494.632 37.272C494.451 37.1706 494.256 37.0837 494.068 36.9968C493.684 36.8085 493.3 36.6202 492.909 36.4609C492.634 36.345 492.351 36.2436 492.069 36.1495C491.787 36.0554 491.519 35.9467 491.236 35.8598C490.954 35.7729 490.642 35.7005 490.345 35.6281C490.048 35.5557 489.773 35.4833 489.476 35.4253C489.179 35.3674 488.752 35.295 488.332 35.2515C488.137 35.2515 487.948 35.1863 487.753 35.1719C487.166 35.1139 486.565 35.0777 485.964 35.0777H483.683C484.284 35.0777 484.878 35.1139 485.464 35.1719C485.667 35.1501 485.855 35.1864 486.051 35.2153Z" fill="#607C91"/>
<path d="M532.348 732.276V53.6021C532.348 27.8432 511.535 6.87839 486 6.87839H46.3471C20.7838 6.87839 0 27.8794 0 53.6021V732.276C0 733.725 0.0868478 735.173 0.217199 736.542C0.217199 736.839 0.267881 737.143 0.296848 737.44C0.451338 738.801 0.656592 740.146 0.912466 741.473C0.955917 741.691 1.01382 741.908 1.05727 742.132C1.31797 743.339 1.62455 744.532 1.97698 745.71C2.03492 745.92 2.09285 746.137 2.15802 746.354C2.56356 747.624 3.01738 748.87 3.51948 750.091L3.86706 750.888C4.39571 752.119 4.96058 753.328 5.59785 754.508C6.23512 755.689 6.93756 756.833 7.66898 757.948L8.14696 758.672C8.88079 759.749 9.65563 760.797 10.4715 761.815L10.8843 762.301C11.6519 763.213 12.4485 764.104 13.2886 764.958C13.4407 765.11 13.5855 765.277 13.7376 765.429C14.6573 766.349 15.6204 767.218 16.6343 768.058C16.8515 768.246 17.0688 768.42 17.286 768.594C18.3071 769.426 19.3499 770.23 20.4434 770.976H20.4796L20.6824 771.099C21.9373 771.948 23.2353 772.731 24.5712 773.446C25.0419 773.699 25.5343 773.909 26.0195 774.17C26.9754 774.641 27.9313 775.111 28.9162 775.517C29.6404 775.806 30.3646 776.053 31.0887 776.306C31.8129 776.56 32.4574 776.799 33.1526 777.03C33.8478 777.262 34.6662 777.429 35.4265 777.617C36.1869 777.805 36.8749 777.979 37.5991 778.124C38.5477 778.312 39.5181 778.442 40.4958 778.573C40.9737 778.638 41.4517 778.725 41.9441 778.768C43.3925 778.913 44.9205 779 46.434 779H486.058C511.535 779 532.348 758.035 532.348 732.276ZM27.9241 732.276V53.6021C27.9087 48.6986 29.8404 43.9896 33.2948 40.5094C36.7491 37.0292 41.4437 35.0626 46.3471 35.0415H485.971C486.609 35.0415 487.239 35.0777 487.854 35.1357L488.34 35.2153C488.723 35.2588 489.107 35.3167 489.484 35.3891C489.86 35.4615 490.063 35.5267 490.353 35.5919C490.642 35.6571 490.954 35.7367 491.243 35.8236C491.533 35.9105 491.801 36.0119 492.076 36.1133C492.351 36.2147 492.641 36.3088 492.916 36.4247L493.141 36.5044C494.784 37.2054 496.316 38.1422 497.689 39.2852C497.754 39.3359 497.805 39.401 497.87 39.4517C497.935 39.5024 498.181 39.7342 498.333 39.879C498.688 40.1976 499.057 40.5235 499.347 40.8784C499.513 41.0449 499.666 41.226 499.825 41.3998C500.136 41.7619 500.426 42.1239 500.708 42.5078C500.839 42.6816 500.969 42.8481 501.092 43.0219C501.48 43.5754 501.835 44.1508 502.157 44.7454V44.7454C502.48 45.3496 502.77 45.9709 503.026 46.6066C503.105 46.8021 503.171 47.0121 503.243 47.2076C503.41 47.6639 503.562 48.1273 503.692 48.5981C503.757 48.8298 503.815 49.0688 503.873 49.3222C503.982 49.8002 504.076 50.2854 504.148 50.7706C504.184 50.9878 504.228 51.2123 504.25 51.4296C504.336 52.1506 504.382 52.8759 504.387 53.6021V732.276C504.403 737.18 502.471 741.889 499.017 745.369C495.562 748.849 490.868 750.816 485.964 750.837H46.3471C41.4437 750.816 36.7491 748.849 33.2948 745.369C29.8404 741.889 27.9087 737.18 27.9241 732.276V732.276Z" fill="white"/>
</svg>
